<svg xmlns="http://www.w3.org/2000/svg" viewBox="0 0 740 460" font-family="'Segoe UI', Arial, sans-serif">
  <defs>
    <marker id="arrow" markerWidth="10" markerHeight="7" refX="10" refY="3.5" orient="auto">
      <polygon points="0 0, 10 3.5, 0 7" fill="#475569"/>
    </marker>
    <filter id="shadow" x="-4%" y="-4%" width="108%" height="112%">
      <feDropShadow dx="0" dy="2" stdDeviation="3" flood-opacity="0.1"/>
    </filter>
  </defs>

  <!-- Background -->
  <rect width="740" height="460" rx="12" fill="#f8fafc"/>

  <!-- Title -->
  <text x="370" y="35" text-anchor="middle" font-size="18" font-weight="700" fill="#0f172a">Systemarchitektur: Proxy zu Chatterbox TTS</text>

  <!-- VM Zone -->
  <rect x="218" y="58" width="232" height="182" rx="10" fill="#fffbeb" stroke="#d97706" stroke-width="1.5" stroke-dasharray="6,3" opacity="0.8"/>
  <text x="334" y="73" text-anchor="middle" font-size="10" font-weight="700" fill="#92400e">VM</text>

  <!-- Host Zone -->
  <rect x="478" y="58" width="240" height="182" rx="10" fill="#f0fdf4" stroke="#16a34a" stroke-width="1.5" stroke-dasharray="6,3" opacity="0.8"/>
  <text x="598" y="73" text-anchor="middle" font-size="10" font-weight="700" fill="#14532d">Host-System (GPU)</text>

  <!-- Browser Box -->
  <rect x="18" y="78" width="180" height="148" rx="10" fill="#e0f2fe" stroke="#0284c7" stroke-width="1.5" filter="url(#shadow)"/>
  <text x="108" y="104" text-anchor="middle" font-size="13" font-weight="700" fill="#0c4a6e">Browser (Client)</text>
  <line x1="36" y1="114" x2="180" y2="114" stroke="#0284c7" stroke-width="0.8" opacity="0.4"/>
  <text x="108" y="135" text-anchor="middle" font-size="11" fill="#334155">HTML / CSS / JS</text>
  <text x="108" y="154" text-anchor="middle" font-size="11" fill="#334155">Vanilla JavaScript</text>
  <text x="108" y="175" text-anchor="middle" font-size="10" fill="#64748b">Keine Frameworks</text>
  <text x="108" y="196" text-anchor="middle" font-size="10" fill="#64748b">Beliebiges Gerät</text>

  <!-- local_ui_server.py Box -->
  <rect x="232" y="78" width="202" height="148" rx="10" fill="#fef3c7" stroke="#d97706" stroke-width="1.5" filter="url(#shadow)"/>
  <text x="333" y="100" text-anchor="middle" font-size="12" font-weight="700" fill="#78350f">local_ui_server.py</text>
  <line x1="250" y1="110" x2="416" y2="110" stroke="#d97706" stroke-width="0.8" opacity="0.4"/>
  <text x="333" y="131" text-anchor="middle" font-size="11" fill="#334155">ThreadingHTTPServer</text>
  <text x="333" y="150" text-anchor="middle" font-size="11" fill="#334155">Frontend-Hosting</text>
  <text x="333" y="169" text-anchor="middle" font-size="11" fill="#334155">API-Proxy zu Chatterbox</text>
  <text x="333" y="194" text-anchor="middle" font-size="10" fill="#64748b">Port 5500 · VM</text>

  <!-- Chatterbox TTS Box -->
  <rect x="492" y="78" width="210" height="148" rx="10" fill="#dcfce7" stroke="#16a34a" stroke-width="1.5" filter="url(#shadow)"/>
  <text x="597" y="100" text-anchor="middle" font-size="12" font-weight="700" fill="#14532d">Chatterbox TTS</text>
  <line x1="510" y1="110" x2="684" y2="110" stroke="#16a34a" stroke-width="0.8" opacity="0.4"/>
  <text x="597" y="131" text-anchor="middle" font-size="11" fill="#334155">Text-to-Speech</text>
  <text x="597" y="150" text-anchor="middle" font-size="11" fill="#334155">28 vordefinierte Stimmen</text>
  <text x="597" y="169" text-anchor="middle" font-size="11" fill="#334155">GPU-beschleunigt</text>
  <text x="597" y="194" text-anchor="middle" font-size="10" fill="#64748b">Port 8004 · Host</text>

  <!-- Arrow: Browser → UI-Server -->
  <line x1="198" y1="132" x2="232" y2="132" stroke="#475569" stroke-width="1.5" marker-end="url(#arrow)"/>
  <text x="215" y="124" text-anchor="middle" font-size="8" font-weight="600" fill="#475569">POST /api/run</text>
  <!-- Arrow: UI-Server → Browser -->
  <line x1="232" y1="162" x2="198" y2="162" stroke="#475569" stroke-width="1.5" marker-end="url(#arrow)"/>
  <text x="215" y="178" text-anchor="middle" font-size="8" fill="#64748b">audio_url</text>
  <!-- Badge -->
  <rect x="184" y="102" width="62" height="15" rx="3" fill="#dbeafe" stroke="#3b82f6" stroke-width="0.8"/>
  <text x="215" y="113" text-anchor="middle" font-size="8" font-weight="600" fill="#1e40af">HTTP/JSON</text>

  <!-- Arrow: UI-Server → Chatterbox -->
  <line x1="434" y1="132" x2="492" y2="132" stroke="#475569" stroke-width="1.5" marker-end="url(#arrow)"/>
  <text x="463" y="124" text-anchor="middle" font-size="8" font-weight="600" fill="#475569">POST /tts</text>
  <!-- Arrow: Chatterbox → UI-Server -->
  <line x1="492" y1="162" x2="434" y2="162" stroke="#475569" stroke-width="1.5" marker-end="url(#arrow)"/>
  <text x="463" y="178" text-anchor="middle" font-size="8" fill="#64748b">Binary WAV</text>
  <!-- Badge -->
  <rect x="432" y="102" width="62" height="15" rx="3" fill="#d1fae5" stroke="#059669" stroke-width="0.8"/>
  <text x="463" y="113" text-anchor="middle" font-size="8" font-weight="600" fill="#065f46">HTTP/WAV</text>

  <!-- Storage Box (VM) -->
  <rect x="232" y="278" width="202" height="148" rx="10" fill="#f1f5f9" stroke="#94a3b8" stroke-width="1.5" filter="url(#shadow)"/>
  <text x="333" y="302" text-anchor="middle" font-size="12" font-weight="700" fill="#0f172a">Storage (VM)</text>
  <line x1="250" y1="312" x2="416" y2="312" stroke="#94a3b8" stroke-width="0.8" opacity="0.4"/>
  <rect x="252" y="321" width="162" height="24" rx="5" fill="#e2e8f0"/>
  <text x="260" y="337" font-size="10" fill="#334155" font-family="monospace">storage/output/</text>
  <text x="333" y="366" text-anchor="middle" font-size="10" fill="#64748b">UUID-basierte WAV-Dateien</text>
  <text x="333" y="384" text-anchor="middle" font-size="10" fill="#64748b">Browser-Download</text>
  <text x="333" y="402" text-anchor="middle" font-size="10" fill="#64748b">GET /storage/output/*.wav</text>

  <!-- Voices Box (Host) -->
  <rect x="492" y="278" width="210" height="148" rx="10" fill="#f0fdf4" stroke="#16a34a" stroke-width="1.5" filter="url(#shadow)"/>
  <text x="597" y="302" text-anchor="middle" font-size="12" font-weight="700" fill="#14532d">Vordefinierte Stimmen</text>
  <line x1="510" y1="312" x2="684" y2="312" stroke="#16a34a" stroke-width="0.8" opacity="0.4"/>
  <text x="597" y="334" text-anchor="middle" font-size="11" fill="#334155">28 Stimmen verfügbar</text>
  <text x="597" y="356" text-anchor="middle" font-size="10" fill="#64748b">Alexander, Elena, Michael ...</text>
  <text x="597" y="378" text-anchor="middle" font-size="10" fill="#64748b">Männlich &amp; Weiblich</text>
  <text x="597" y="398" text-anchor="middle" font-size="10" fill="#64748b">Keine Modelldateien nötig</text>

  <!-- Arrow: UI-Server → Storage -->
  <line x1="333" y1="226" x2="333" y2="278" stroke="#475569" stroke-width="1.5" stroke-dasharray="5,3" marker-end="url(#arrow)"/>
  <text x="345" y="256" font-size="9" fill="#475569">speichert WAV</text>

  <!-- Arrow: Chatterbox → Voices -->
  <line x1="597" y1="226" x2="597" y2="278" stroke="#475569" stroke-width="1.5" stroke-dasharray="5,3" marker-end="url(#arrow)"/>
  <text x="609" y="256" font-size="9" fill="#475569">nutzt Stimmen</text>

  <!-- Arrow: Browser → Storage (GET /storage/*) -->
  <path d="M108,226 L108,352 L232,352" fill="none" stroke="#0284c7" stroke-width="1.2" stroke-dasharray="5,3" marker-end="url(#arrow)"/>
  <text x="120" y="300" font-size="9" fill="#0284c7">GET /storage/*</text>
</svg>
